<svg width="30" height="32" viewBox="0 0 30 32" fill="none" xmlns="http://www.w3.org/2000/svg">
<path d="M13.1318 17.8104L18.0111 15.0002L13.1318 12.1899V17.8104Z" fill="#C5AC2D"/>
<path d="M15 0C6.717 0 0 7.16479 0 16C0 24.8352 6.717 32 15 32C23.283 32 30 24.8352 30 16C30 7.16479 23.283 0 15 0ZM24.3727 16.0164C24.3727 16.0164 24.3727 19.2612 23.9868 20.8259C23.7705 21.6824 23.1374 22.3577 22.3345 22.5881C20.8676 23 15 23 15 23C15 23 9.14772 23 7.66548 22.5718C6.86256 22.3413 6.22948 21.6658 6.01318 20.8093C5.62706 19.2612 5.62706 16 5.62706 16C5.62706 16 5.62706 12.7554 6.01318 11.1907C6.22925 10.3342 6.8779 9.64233 7.66548 9.41187C9.13239 9 15 9 15 9C15 9 20.8676 9 22.3345 9.42822C23.1374 9.65869 23.7705 10.3342 23.9868 11.1907C24.3883 12.7554 24.3727 16.0164 24.3727 16.0164V16.0164Z" fill="#C5AC2D"/>
</svg>
